<mxfile host="app.diagrams.net" modified="2024-06-18T12:07:46.624Z" agent="Mozilla/5.0 (Windows NT 10.0; Win64; x64) AppleWebKit/537.36 (KHTML, like Gecko) Chrome/126.0.0.0 Safari/537.36 OpenWave/93.4.3927.33" version="24.4.4" etag="eHjKzG9PMV0Dn0cWkVdg" type="device">
  <diagram name="Page-1" id="TF0PRry378tvz2ITyngi">
    <mxGraphModel dx="1050" dy="522" grid="1" gridSize="10" guides="1" tooltips="1" connect="1" arrows="1" fold="1" page="1" pageScale="1" pageWidth="850" pageHeight="1100" background="none" math="0" shadow="0">
      <root>
        <mxCell id="0" />
        <mxCell id="1" parent="0" />
        <mxCell id="Mf5M8aZO-sZCZv7AJIHo-25" value="WEEK 1" style="swimlane;startSize=20;horizontal=1;containerType=tree;treeFolding=0;" vertex="1" parent="1">
          <mxGeometry x="150" y="20" width="550" height="290" as="geometry" />
        </mxCell>
        <mxCell id="Mf5M8aZO-sZCZv7AJIHo-27" value="&lt;font style=&quot;font-size: 13px;&quot;&gt;&lt;b&gt;Task 1.1:&lt;/b&gt; Studying about transpiler architecture&lt;/font&gt;" style="whiteSpace=wrap;html=1;treeFolding=0;treeMoving=1;newEdgeStyle={&quot;edgeStyle&quot;:&quot;elbowEdgeStyle&quot;,&quot;startArrow&quot;:&quot;none&quot;,&quot;endArrow&quot;:&quot;none&quot;};" vertex="1" parent="Mf5M8aZO-sZCZv7AJIHo-25">
          <mxGeometry x="10" y="30" width="230" height="40" as="geometry" />
        </mxCell>
        <mxCell id="Mf5M8aZO-sZCZv7AJIHo-45" style="edgeStyle=elbowEdgeStyle;rounded=0;orthogonalLoop=1;jettySize=auto;html=1;startArrow=none;endArrow=none;exitX=1;exitY=0.5;exitDx=0;exitDy=0;" edge="1" parent="Mf5M8aZO-sZCZv7AJIHo-25" source="Mf5M8aZO-sZCZv7AJIHo-29" target="Mf5M8aZO-sZCZv7AJIHo-41">
          <mxGeometry relative="1" as="geometry" />
        </mxCell>
        <mxCell id="Mf5M8aZO-sZCZv7AJIHo-29" value="&lt;font style=&quot;font-size: 13px;&quot;&gt;&lt;b&gt;Task 1.2:&lt;/b&gt; Implementing basic Lexer&lt;/font&gt;" style="whiteSpace=wrap;html=1;treeFolding=0;treeMoving=1;newEdgeStyle={&quot;edgeStyle&quot;:&quot;elbowEdgeStyle&quot;,&quot;startArrow&quot;:&quot;none&quot;,&quot;endArrow&quot;:&quot;none&quot;};" vertex="1" parent="Mf5M8aZO-sZCZv7AJIHo-25">
          <mxGeometry x="10" y="110" width="230" height="40" as="geometry" />
        </mxCell>
        <mxCell id="Mf5M8aZO-sZCZv7AJIHo-30" value="" style="edgeStyle=elbowEdgeStyle;elbow=vertical;sourcePerimeterSpacing=0;targetPerimeterSpacing=0;startArrow=none;endArrow=none;rounded=0;curved=0;" edge="1" parent="Mf5M8aZO-sZCZv7AJIHo-25" source="Mf5M8aZO-sZCZv7AJIHo-27" target="Mf5M8aZO-sZCZv7AJIHo-29">
          <mxGeometry relative="1" as="geometry">
            <mxPoint x="195" y="70" as="sourcePoint" />
            <mxPoint x="195" y="110" as="targetPoint" />
          </mxGeometry>
        </mxCell>
        <mxCell id="Mf5M8aZO-sZCZv7AJIHo-41" value="&lt;font style=&quot;font-size: 13px;&quot;&gt;&lt;b&gt;Task 1.2.3:&lt;/b&gt; Lexing Symbols&lt;/font&gt;" style="whiteSpace=wrap;html=1;treeFolding=0;treeMoving=1;newEdgeStyle={&quot;edgeStyle&quot;:&quot;elbowEdgeStyle&quot;,&quot;startArrow&quot;:&quot;none&quot;,&quot;endArrow&quot;:&quot;none&quot;};align=left;" vertex="1" parent="Mf5M8aZO-sZCZv7AJIHo-25">
          <mxGeometry x="275" y="230" width="255" height="40" as="geometry" />
        </mxCell>
        <mxCell id="Mf5M8aZO-sZCZv7AJIHo-42" value="&lt;div style=&quot;&quot;&gt;&lt;b style=&quot;font-size: 13px; background-color: initial;&quot;&gt;Task 1.2.1:&lt;/b&gt;&lt;span style=&quot;font-size: 13px; background-color: initial;&quot;&gt; Lexing Arithmetic operators&lt;/span&gt;&lt;/div&gt;" style="whiteSpace=wrap;html=1;treeFolding=0;treeMoving=1;newEdgeStyle={&quot;edgeStyle&quot;:&quot;elbowEdgeStyle&quot;,&quot;startArrow&quot;:&quot;none&quot;,&quot;endArrow&quot;:&quot;none&quot;};align=left;noLabel=0;recursiveResize=1;expand=1;" vertex="1" parent="Mf5M8aZO-sZCZv7AJIHo-25">
          <mxGeometry x="275" y="110" width="255" height="40" as="geometry" />
        </mxCell>
        <mxCell id="Mf5M8aZO-sZCZv7AJIHo-43" style="edgeStyle=elbowEdgeStyle;rounded=0;orthogonalLoop=1;jettySize=auto;html=1;startArrow=none;endArrow=none;exitX=1;exitY=0.5;exitDx=0;exitDy=0;entryX=0;entryY=0.5;entryDx=0;entryDy=0;" edge="1" parent="Mf5M8aZO-sZCZv7AJIHo-25" source="Mf5M8aZO-sZCZv7AJIHo-29" target="Mf5M8aZO-sZCZv7AJIHo-42">
          <mxGeometry relative="1" as="geometry" />
        </mxCell>
        <mxCell id="Mf5M8aZO-sZCZv7AJIHo-40" value="&lt;font style=&quot;font-size: 13px;&quot;&gt;&lt;b&gt;Task 1.2.2:&lt;/b&gt; Lexing Identifiers &amp;amp; Keywords&lt;/font&gt;" style="whiteSpace=wrap;html=1;treeFolding=0;treeMoving=1;newEdgeStyle={&quot;edgeStyle&quot;:&quot;elbowEdgeStyle&quot;,&quot;startArrow&quot;:&quot;none&quot;,&quot;endArrow&quot;:&quot;none&quot;};align=left;" vertex="1" parent="Mf5M8aZO-sZCZv7AJIHo-25">
          <mxGeometry x="275" y="170" width="255" height="40" as="geometry" />
        </mxCell>
        <mxCell id="Mf5M8aZO-sZCZv7AJIHo-44" style="edgeStyle=elbowEdgeStyle;rounded=0;orthogonalLoop=1;jettySize=auto;html=1;startArrow=none;endArrow=none;exitX=1;exitY=0.5;exitDx=0;exitDy=0;entryX=0;entryY=0.5;entryDx=0;entryDy=0;" edge="1" parent="Mf5M8aZO-sZCZv7AJIHo-25" source="Mf5M8aZO-sZCZv7AJIHo-29" target="Mf5M8aZO-sZCZv7AJIHo-40">
          <mxGeometry relative="1" as="geometry" />
        </mxCell>
      </root>
    </mxGraphModel>
  </diagram>
</mxfile>
